<svg width="34" height="27" viewBox="0 0 34 27" fill="none" xmlns="http://www.w3.org/2000/svg">
<g filter="url(#filter0_d_9_1138)">
<path d="M27.12 2.14677C24.696 0.32455 20.863 0.0158567 20.701 0.00276058C20.445 -0.017819 20.202 0.117819 20.097 0.336711C20.093 0.344194 19.879 0.925098 19.672 1.48542C22.489 1.94659 24.403 2.96996 24.505 3.02608C24.983 3.28613 25.143 3.85955 24.864 4.30576C24.679 4.60322 24.344 4.76973 24 4.76973C23.829 4.76973 23.657 4.72951 23.499 4.64345C23.471 4.62754 20.663 3.13272 17.002 3.13272C13.34 3.13272 10.531 4.62848 10.503 4.64345C10.026 4.90256 9.414 4.75009 9.137 4.30295C8.86 3.85768 9.021 3.28613 9.497 3.02608C9.599 2.96996 11.52 1.94285 14.345 1.48262C14.127 0.915744 13.907 0.344194 13.903 0.336711C13.798 0.116884 13.555 -0.0215607 13.299 0.00276058C13.137 0.0149212 9.304 0.323615 6.848 2.1711C5.564 3.28052 3 9.76682 3 15.3747C3 15.4739 3.027 15.5702 3.08 15.6563C4.851 18.5655 9.679 19.3269 10.779 19.3597C10.786 19.3606 10.792 19.3606 10.798 19.3606C10.992 19.3606 11.175 19.2736 11.29 19.1268L12.48 17.6188C9.87 17.0305 8.49 16.1053 8.407 16.0483C7.963 15.7424 7.867 15.1568 8.194 14.7405C8.52 14.3261 9.144 14.2344 9.588 14.5385C9.625 14.5609 12.172 16.2288 17 16.2288C21.847 16.2288 24.387 14.5544 24.412 14.5375C24.856 14.2363 25.482 14.3271 25.807 14.7443C26.131 15.1596 26.037 15.7414 25.595 16.0464C25.512 16.1034 24.139 17.0267 21.535 17.6151L22.71 19.1258C22.825 19.2736 23.008 19.3597 23.202 19.3597C23.209 19.3597 23.215 19.3597 23.221 19.3588C24.322 19.326 29.15 18.5646 30.92 15.6554C30.973 15.5693 31 15.473 31 15.3738C31 9.76682 28.436 3.28052 27.12 2.14677ZM13 13.4225C11.895 13.4225 11 12.3757 11 11.0839C11 9.79207 11.895 8.74532 13 8.74532C14.105 8.74532 15 9.79207 15 11.0839C15 12.3757 14.105 13.4225 13 13.4225ZM21 13.4225C19.895 13.4225 19 12.3757 19 11.0839C19 9.79207 19.895 8.74532 21 8.74532C22.105 8.74532 23 9.79207 23 11.0839C23 12.3757 22.105 13.4225 21 13.4225Z" fill="#F5F5DC"/>
</g>
<defs>
<filter id="filter0_d_9_1138" x="0" y="0" width="34" height="26.3608" filterUnits="userSpaceOnUse" color-interpolation-filters="sRGB">
<feFlood flood-opacity="0" result="BackgroundImageFix"/>
<feColorMatrix in="SourceAlpha" type="matrix" values="0 0 0 0 0 0 0 0 0 0 0 0 0 0 0 0 0 0 127 0" result="hardAlpha"/>
<feOffset dy="4"/>
<feGaussianBlur stdDeviation="1.5"/>
<feComposite in2="hardAlpha" operator="out"/>
<feColorMatrix type="matrix" values="0 0 0 0 0 0 0 0 0 0 0 0 0 0 0 0 0 0 0.13 0"/>
<feBlend mode="normal" in2="BackgroundImageFix" result="effect1_dropShadow_9_1138"/>
<feBlend mode="normal" in="SourceGraphic" in2="effect1_dropShadow_9_1138" result="shape"/>
</filter>
</defs>
</svg>
