<svg width="20" height="15" viewBox="0 0 20 15" fill="none" xmlns="http://www.w3.org/2000/svg">
<path d="M1 6.36395C0.447715 6.36395 4.82823e-08 6.81167 0 7.36395C-4.82823e-08 7.91624 0.447715 8.36395 1 8.36395L1 6.36395ZM19.1632 8.07106C19.5537 7.68054 19.5537 7.04737 19.1632 6.65685L12.7992 0.292886C12.4087 -0.0976386 11.7755 -0.0976386 11.385 0.292886C10.9945 0.68341 10.9945 1.31657 11.385 1.7071L17.0418 7.36395L11.385 13.0208C10.9945 13.4113 10.9945 14.0445 11.385 14.435C11.7755 14.8255 12.4087 14.8255 12.7992 14.435L19.1632 8.07106ZM1 8.36395L18.4561 8.36395L18.4561 6.36395L1 6.36395L1 8.36395Z" fill="white"/>
</svg>
