<svg width="274" height="315" viewBox="0 0 274 315" fill="none" xmlns="http://www.w3.org/2000/svg">
<path d="M246.679 31.4243C252.176 18.1731 273.515 4.24733e-05 273.515 4.24733e-05L20 4.76514e-05C8.95433 4.7877e-05 1.33777e-05 8.95435 1.28949e-05 20L8.7424e-07 295C3.91418e-07 306.046 8.95428 315 20 315L274 315C225.005 280.168 261.287 230.787 270.418 187.031C281.48 134.027 249.776 124.183 239.454 93.5157C229.133 62.8486 243.067 40.1323 246.679 31.4243Z" fill="#008080"/>
<mask id="mask0_8_338" style="mask-type:alpha" maskUnits="userSpaceOnUse" x="-1" y="-1" width="268" height="317">
<path d="M238.577 31.4246C243.893 18.1734 264.531 0.000269072 264.531 0.000269072L1.37691e-05 0.000275052L0 315L265 315C217.614 280.169 252.705 230.787 261.536 187.032C272.234 134.027 241.572 124.183 231.589 93.5159C221.607 62.8488 235.083 40.1325 238.577 31.4246Z" fill="#EA1826" stroke="black"/>
</mask>
<g mask="url(#mask0_8_338)">
</g>
</svg>
