<svg width="654" height="344" viewBox="0 0 654 344" fill="none" xmlns="http://www.w3.org/2000/svg">
<path d="M0 15V283.181C0 294.221 11.55 301.456 21.9392 297.72C60.4891 283.858 89.0838 287.986 127.447 305.581C129.454 306.502 131.645 307 133.853 307H203C211.284 307 218 313.716 218 322V337.98C218 342.733 223.264 345.599 227.256 343.019L279.284 309.401C281.71 307.834 284.536 307 287.424 307H639C647.284 307 654 300.284 654 292V15C654 6.71573 647.284 0 639 0H15C6.71573 0 0 6.71573 0 15Z" fill="#F29AA7"/>
</svg>
